# xmcd
#
# Track frame offsets:
#	150
#	31090
#	47400
#	70448
#	83223
#	96025
#	118378
#	135103
#	156440
#	169835
#
# Disc length: 2461 seconds
#
# Revision: 0
# Processed by: cddbd v1.4PL0 Copyright (c) Steve Scherf et al.
# Submitted via: OrangeCD 4.1
#
DISCID=7d099b0a
DTITLE=Don McMinn - Painkiller Blues
DYEAR=1900
DGENRE=
TTITLE0=Painkiller Blues
TTITLE1=I've Earned My Rest
TTITLE2=House Of The Rising Sun
TTITLE3=Where's The Love
TTITLE4=Memphis In May
TTITLE5=Down Home Blues
TTITLE6=Loving Instructor
TTITLE7=Nothing Like A Woman
TTITLE8=Plastic Flowers
TTITLE9=Lay Back
EXTD=
EXTT0=
EXTT1=
EXTT2=
EXTT3=
EXTT4=
EXTT5=
EXTT6=
EXTT7=
EXTT8=
EXTT9=
PLAYORDER=
